M48
; DRILL file {KiCad 9.0.7} date 2026-03-14T11:21:08-0400
; FORMAT={-:-/ absolute / metric / decimal}
; #@! TF.CreationDate,2026-03-14T11:21:08-04:00
; #@! TF.GenerationSoftware,Kicad,Pcbnew,9.0.7
; #@! TF.FileFunction,Plated,1,4,PTH
FMAT,2
METRIC
; #@! TA.AperFunction,Plated,PTH,ViaDrill
T1C0.300
; #@! TA.AperFunction,Plated,PTH,ComponentDrill
T2C1.000
; #@! TA.AperFunction,Plated,PTH,ComponentDrill
T3C1.550
; #@! TA.AperFunction,Plated,PTH,ComponentDrill
T4C1.750
%
G90
G05
T1
X130.111Y-96.122
X130.111Y-97.341
X131.787Y-97.392
X133.26Y-97.341
X133.311Y-96.122
X136.05Y-101.88
X140.5Y-109.6
X148.01Y-117.25
X148.96Y-116.32
X149.63Y-116.33
X149.68Y-121.134
X150.39Y-116.32
X151.34Y-117.19
X157.5Y-81.27
X159.915Y-108.32
X159.915Y-111.12
X160.915Y-111.095
X160.94Y-108.345
X160.99Y-109.62
T2
X132.13Y-111.55
X134.67Y-111.55
T3
X132.08Y-81.28
X132.08Y-119.38
X170.18Y-104.14
X170.18Y-119.38
T4
X129.54Y-78.74
X129.54Y-83.82
X129.54Y-116.84
X129.54Y-121.92
X134.62Y-78.74
X134.62Y-83.82
X134.62Y-116.84
X134.62Y-121.92
X167.64Y-101.6
X167.64Y-106.68
X167.64Y-116.84
X167.64Y-121.92
X172.72Y-101.6
X172.72Y-106.68
X172.72Y-116.84
X172.72Y-121.92
M30
