%TF.GenerationSoftware,KiCad,Pcbnew,9.0.7*%
%TF.CreationDate,2026-03-14T11:18:55-04:00*%
%TF.ProjectId,lab6,6c616236-2e6b-4696-9361-645f70636258,rev?*%
%TF.SameCoordinates,Original*%
%TF.FileFunction,Copper,L4,Bot*%
%TF.FilePolarity,Positive*%
%FSLAX46Y46*%
G04 Gerber Fmt 4.6, Leading zero omitted, Abs format (unit mm)*
G04 Created by KiCad (PCBNEW 9.0.7) date 2026-03-14 11:18:55*
%MOMM*%
%LPD*%
G01*
G04 APERTURE LIST*
%TA.AperFunction,ComponentPad*%
%ADD10C,2.325000*%
%TD*%
%TA.AperFunction,ComponentPad*%
%ADD11C,2.625000*%
%TD*%
%TA.AperFunction,ComponentPad*%
%ADD12R,1.700000X1.700000*%
%TD*%
%TA.AperFunction,ComponentPad*%
%ADD13O,1.700000X1.700000*%
%TD*%
%TA.AperFunction,ViaPad*%
%ADD14C,0.500000*%
%TD*%
G04 APERTURE END LIST*
D10*
%TO.P,J4,1*%
%TO.N,Net-(C4-Pad1)*%
X170180000Y-119380000D03*
D11*
%TO.P,J4,G1*%
%TO.N,GND*%
X167640000Y-116840000D03*
%TO.P,J4,G2*%
X172720000Y-116840000D03*
%TO.P,J4,G3*%
X167640000Y-121920000D03*
%TO.P,J4,G4*%
X172720000Y-121920000D03*
%TD*%
D10*
%TO.P,J3,1*%
%TO.N,Net-(C3-Pad1)*%
X132080000Y-119380000D03*
D11*
%TO.P,J3,G1*%
%TO.N,GND*%
X129540000Y-116840000D03*
%TO.P,J3,G2*%
X134620000Y-116840000D03*
%TO.P,J3,G3*%
X129540000Y-121920000D03*
%TO.P,J3,G4*%
X134620000Y-121920000D03*
%TD*%
D10*
%TO.P,J2,1*%
%TO.N,Net-(J2-Pad1)*%
X170180000Y-104140000D03*
D11*
%TO.P,J2,G1*%
%TO.N,GND*%
X167640000Y-101600000D03*
%TO.P,J2,G2*%
X172720000Y-101600000D03*
%TO.P,J2,G3*%
X167640000Y-106680000D03*
%TO.P,J2,G4*%
X172720000Y-106680000D03*
%TD*%
D10*
%TO.P,J1,1*%
%TO.N,Net-(J1-Pad1)*%
X132080000Y-81280000D03*
D11*
%TO.P,J1,G1*%
%TO.N,GND*%
X129540000Y-78740000D03*
%TO.P,J1,G2*%
X134620000Y-78740000D03*
%TO.P,J1,G3*%
X129540000Y-83820000D03*
%TO.P,J1,G4*%
X134620000Y-83820000D03*
%TD*%
D12*
%TO.P,J5,1,Pin_1*%
%TO.N,Net-(J5-Pin_1)*%
X134670000Y-111550000D03*
D13*
%TO.P,J5,2,Pin_2*%
%TO.N,GND*%
X132130000Y-111550000D03*
%TD*%
D14*
%TO.N,GND*%
X148010000Y-117250000D03*
X160940000Y-108345000D03*
X130110600Y-96122200D03*
X159915000Y-111120000D03*
X159915000Y-108320000D03*
X133311000Y-96122200D03*
X130110600Y-97341400D03*
X149680000Y-121133900D03*
X148960000Y-116320000D03*
X150390000Y-116320000D03*
X160990000Y-109620000D03*
X160915000Y-111095000D03*
X140500000Y-109600000D03*
X157500000Y-81270000D03*
X149630000Y-116330000D03*
X131787000Y-97392200D03*
X136050000Y-101880000D03*
X133260200Y-97341400D03*
X151340000Y-117190000D03*
%TD*%
M02*
