%TF.GenerationSoftware,KiCad,Pcbnew,9.0.7*%
%TF.CreationDate,2026-03-14T11:18:55-04:00*%
%TF.ProjectId,lab6,6c616236-2e6b-4696-9361-645f70636258,rev?*%
%TF.SameCoordinates,Original*%
%TF.FileFunction,Copper,L2,Inr*%
%TF.FilePolarity,Positive*%
%FSLAX46Y46*%
G04 Gerber Fmt 4.6, Leading zero omitted, Abs format (unit mm)*
G04 Created by KiCad (PCBNEW 9.0.7) date 2026-03-14 11:18:55*
%MOMM*%
%LPD*%
G01*
G04 APERTURE LIST*
%TA.AperFunction,ComponentPad*%
%ADD10C,2.325000*%
%TD*%
%TA.AperFunction,ComponentPad*%
%ADD11C,2.625000*%
%TD*%
%TA.AperFunction,ComponentPad*%
%ADD12R,1.700000X1.700000*%
%TD*%
%TA.AperFunction,ComponentPad*%
%ADD13O,1.700000X1.700000*%
%TD*%
%TA.AperFunction,ViaPad*%
%ADD14C,0.500000*%
%TD*%
G04 APERTURE END LIST*
D10*
%TO.N,Net-(C4-Pad1)*%
%TO.C,J4*%
X170180000Y-119380000D03*
D11*
%TO.N,GND*%
X167640000Y-116840000D03*
X172720000Y-116840000D03*
X167640000Y-121920000D03*
X172720000Y-121920000D03*
%TD*%
D10*
%TO.N,Net-(C3-Pad1)*%
%TO.C,J3*%
X132080000Y-119380000D03*
D11*
%TO.N,GND*%
X129540000Y-116840000D03*
X134620000Y-116840000D03*
X129540000Y-121920000D03*
X134620000Y-121920000D03*
%TD*%
D10*
%TO.N,Net-(J2-Pad1)*%
%TO.C,J2*%
X170180000Y-104140000D03*
D11*
%TO.N,GND*%
X167640000Y-101600000D03*
X172720000Y-101600000D03*
X167640000Y-106680000D03*
X172720000Y-106680000D03*
%TD*%
D10*
%TO.N,Net-(J1-Pad1)*%
%TO.C,J1*%
X132080000Y-81280000D03*
D11*
%TO.N,GND*%
X129540000Y-78740000D03*
X134620000Y-78740000D03*
X129540000Y-83820000D03*
X134620000Y-83820000D03*
%TD*%
D12*
%TO.N,Net-(J5-Pin_1)*%
%TO.C,J5*%
X134670000Y-111550000D03*
D13*
%TO.N,GND*%
X132130000Y-111550000D03*
%TD*%
D14*
%TO.N,GND*%
X148010000Y-117250000D03*
X160940000Y-108345000D03*
X130110600Y-96122200D03*
X159915000Y-111120000D03*
X159915000Y-108320000D03*
X133311000Y-96122200D03*
X130110600Y-97341400D03*
X149680000Y-121133900D03*
X148960000Y-116320000D03*
X150390000Y-116320000D03*
X160990000Y-109620000D03*
X160915000Y-111095000D03*
X140500000Y-109600000D03*
X157500000Y-81270000D03*
X149630000Y-116330000D03*
X131787000Y-97392200D03*
X136050000Y-101880000D03*
X133260200Y-97341400D03*
X151340000Y-117190000D03*
%TD*%
%TA.AperFunction,Conductor*%
%TO.N,GND*%
G36*
X175202539Y-76220185D02*
G01*
X175248294Y-76272989D01*
X175259500Y-76324500D01*
X175259500Y-124335500D01*
X175239815Y-124402539D01*
X175187011Y-124448294D01*
X175135500Y-124459500D01*
X127124500Y-124459500D01*
X127057461Y-124439815D01*
X127011706Y-124387011D01*
X127000500Y-124335500D01*
X127000500Y-116721208D01*
X127727500Y-116721208D01*
X127727500Y-116958791D01*
X127727501Y-116958808D01*
X127758511Y-117194356D01*
X127820009Y-117423866D01*
X127910924Y-117643356D01*
X127910931Y-117643371D01*
X128029721Y-117849122D01*
X128029727Y-117849129D01*
X128093805Y-117932639D01*
X128767545Y-117258899D01*
X128860343Y-117397780D01*
X128982220Y-117519657D01*
X129121099Y-117612453D01*
X128447359Y-118286193D01*
X128447359Y-118286194D01*
X128530868Y-118350272D01*
X128736628Y-118469068D01*
X128736643Y-118469075D01*
X128956133Y-118559990D01*
X129185643Y-118621488D01*
X129421191Y-118652498D01*
X129421209Y-118652500D01*
X129658791Y-118652500D01*
X129658808Y-118652498D01*
X129894356Y-118621488D01*
X130123866Y-118559990D01*
X130343356Y-118469075D01*
X130343370Y-118469068D01*
X130456030Y-118404024D01*
X130523930Y-118387551D01*
X130589957Y-118410403D01*
X130633147Y-118465324D01*
X130639789Y-118534878D01*
X130625418Y-118573410D01*
X130585300Y-118642897D01*
X130585295Y-118642907D01*
X130501876Y-118844300D01*
X130445455Y-119054870D01*
X130417000Y-119270993D01*
X130417000Y-119489006D01*
X130439131Y-119657101D01*
X130445455Y-119705131D01*
X130475690Y-119817973D01*
X130501876Y-119915699D01*
X130585295Y-120117092D01*
X130585300Y-120117102D01*
X130625418Y-120186589D01*
X130641890Y-120254489D01*
X130619037Y-120320516D01*
X130564115Y-120363706D01*
X130494562Y-120370347D01*
X130456030Y-120355975D01*
X130343371Y-120290931D01*
X130343356Y-120290924D01*
X130123866Y-120200009D01*
X129894356Y-120138511D01*
X129658808Y-120107501D01*
X129658791Y-120107500D01*
X129421209Y-120107500D01*
X129421191Y-120107501D01*
X129185643Y-120138511D01*
X128956133Y-120200009D01*
X128736643Y-120290924D01*
X128736628Y-120290931D01*
X128530875Y-120409723D01*
X128530861Y-120409732D01*
X128447359Y-120473804D01*
X128447359Y-120473805D01*
X129121100Y-121147546D01*
X128982220Y-121240343D01*
X128860343Y-121362220D01*
X128767546Y-121501100D01*
X128093805Y-120827359D01*
X128093804Y-120827359D01*
X128029732Y-120910861D01*
X128029723Y-120910875D01*
X127910931Y-121116628D01*
X127910924Y-121116643D01*
X127820009Y-121336133D01*
X127758511Y-121565643D01*
X127727501Y-121801191D01*
X127727500Y-121801208D01*
X127727500Y-122038791D01*
X127727501Y-122038808D01*
X127758511Y-122274356D01*
X127820009Y-122503866D01*
X127910924Y-122723356D01*
X127910931Y-122723371D01*
X128029721Y-122929122D01*
X128029727Y-122929129D01*
X128093805Y-123012639D01*
X128767545Y-122338899D01*
X128860343Y-122477780D01*
X128982220Y-122599657D01*
X129121099Y-122692453D01*
X128447359Y-123366193D01*
X128447359Y-123366194D01*
X128530868Y-123430272D01*
X128736628Y-123549068D01*
X128736643Y-123549075D01*
X128956133Y-123639990D01*
X129185643Y-123701488D01*
X129421191Y-123732498D01*
X129421209Y-123732500D01*
X129658791Y-123732500D01*
X129658808Y-123732498D01*
X129894356Y-123701488D01*
X130123866Y-123639990D01*
X130343356Y-123549075D01*
X130343370Y-123549068D01*
X130549125Y-123430275D01*
X130549132Y-123430270D01*
X130632639Y-123366193D01*
X129958899Y-122692453D01*
X130097780Y-122599657D01*
X130219657Y-122477780D01*
X130312453Y-122338899D01*
X130986193Y-123012639D01*
X131050270Y-122929132D01*
X131050275Y-122929125D01*
X131169068Y-122723370D01*
X131169075Y-122723356D01*
X131259990Y-122503866D01*
X131321488Y-122274356D01*
X131352498Y-122038808D01*
X131352500Y-122038791D01*
X131352500Y-121801208D01*
X131352498Y-121801191D01*
X131321488Y-121565643D01*
X131259990Y-121336133D01*
X131169075Y-121116643D01*
X131169068Y-121116629D01*
X131104024Y-121003969D01*
X131087551Y-120936069D01*
X131110404Y-120870042D01*
X131165325Y-120826851D01*
X131234878Y-120820210D01*
X131273409Y-120834581D01*
X131302728Y-120851508D01*
X131342892Y-120874697D01*
X131342907Y-120874704D01*
X131430232Y-120910875D01*
X131544299Y-120958123D01*
X131754869Y-121014545D01*
X131971001Y-121043000D01*
X131971008Y-121043000D01*
X132188992Y-121043000D01*
X132188999Y-121043000D01*
X132405131Y-121014545D01*
X132615701Y-120958123D01*
X132817104Y-120874699D01*
X132886590Y-120834581D01*
X132954488Y-120818109D01*
X133020515Y-120840961D01*
X133063705Y-120895882D01*
X133070347Y-120965436D01*
X133055976Y-121003968D01*
X132990929Y-121116633D01*
X132990924Y-121116643D01*
X132900009Y-121336133D01*
X132838511Y-121565643D01*
X132807501Y-121801191D01*
X132807500Y-121801208D01*
X132807500Y-122038791D01*
X132807501Y-122038808D01*
X132838511Y-122274356D01*
X132900009Y-122503866D01*
X132990924Y-122723356D01*
X132990931Y-122723371D01*
X133109721Y-122929122D01*
X133109727Y-122929129D01*
X133173805Y-123012639D01*
X133847545Y-122338899D01*
X133940343Y-122477780D01*
X134062220Y-122599657D01*
X134201099Y-122692453D01*
X133527359Y-123366193D01*
X133527359Y-123366194D01*
X133610868Y-123430272D01*
X133816628Y-123549068D01*
X133816643Y-123549075D01*
X134036133Y-123639990D01*
X134265643Y-123701488D01*
X134501191Y-123732498D01*
X134501209Y-123732500D01*
X134738791Y-123732500D01*
X134738808Y-123732498D01*
X134974356Y-123701488D01*
X135203866Y-123639990D01*
X135423356Y-123549075D01*
X135423370Y-123549068D01*
X135629125Y-123430275D01*
X135629132Y-123430270D01*
X135712639Y-123366193D01*
X135038899Y-122692453D01*
X135177780Y-122599657D01*
X135299657Y-122477780D01*
X135392453Y-122338899D01*
X136066193Y-123012639D01*
X136130270Y-122929132D01*
X136130275Y-122929125D01*
X136249068Y-122723370D01*
X136249075Y-122723356D01*
X136339990Y-122503866D01*
X136401488Y-122274356D01*
X136432498Y-122038808D01*
X136432500Y-122038791D01*
X136432500Y-121801208D01*
X136432498Y-121801191D01*
X136401488Y-121565643D01*
X136339990Y-121336133D01*
X136249075Y-121116643D01*
X136249068Y-121116628D01*
X136130272Y-120910868D01*
X136066194Y-120827359D01*
X136066193Y-120827359D01*
X135392453Y-121501099D01*
X135299657Y-121362220D01*
X135177780Y-121240343D01*
X135038899Y-121147545D01*
X135712639Y-120473805D01*
X135712639Y-120473804D01*
X135629129Y-120409727D01*
X135629122Y-120409721D01*
X135423371Y-120290931D01*
X135423356Y-120290924D01*
X135203866Y-120200009D01*
X134974356Y-120138511D01*
X134738808Y-120107501D01*
X134738791Y-120107500D01*
X134501209Y-120107500D01*
X134501191Y-120107501D01*
X134265643Y-120138511D01*
X134036133Y-120200009D01*
X133816643Y-120290924D01*
X133816633Y-120290929D01*
X133703968Y-120355976D01*
X133636068Y-120372448D01*
X133570041Y-120349595D01*
X133526851Y-120294673D01*
X133520210Y-120225120D01*
X133534582Y-120186589D01*
X133574699Y-120117104D01*
X133658123Y-119915701D01*
X133714545Y-119705131D01*
X133743000Y-119488999D01*
X133743000Y-119271001D01*
X133714545Y-119054869D01*
X133658123Y-118844299D01*
X133617844Y-118747057D01*
X133574704Y-118642907D01*
X133574697Y-118642892D01*
X133534582Y-118573411D01*
X133518109Y-118505511D01*
X133540962Y-118439484D01*
X133595883Y-118396293D01*
X133665436Y-118389652D01*
X133703969Y-118404024D01*
X133816629Y-118469068D01*
X133816643Y-118469075D01*
X134036133Y-118559990D01*
X134265643Y-118621488D01*
X134501191Y-118652498D01*
X134501209Y-118652500D01*
X134738791Y-118652500D01*
X134738808Y-118652498D01*
X134974356Y-118621488D01*
X135203866Y-118559990D01*
X135423356Y-118469075D01*
X135423370Y-118469068D01*
X135629125Y-118350275D01*
X135629132Y-118350270D01*
X135712639Y-118286193D01*
X135038899Y-117612453D01*
X135177780Y-117519657D01*
X135299657Y-117397780D01*
X135392453Y-117258899D01*
X136066193Y-117932639D01*
X136130270Y-117849132D01*
X136130275Y-117849125D01*
X136249068Y-117643370D01*
X136249075Y-117643356D01*
X136339990Y-117423866D01*
X136401488Y-117194356D01*
X136432498Y-116958808D01*
X136432500Y-116958791D01*
X136432500Y-116721208D01*
X165827500Y-116721208D01*
X165827500Y-116958791D01*
X165827501Y-116958808D01*
X165858511Y-117194356D01*
X165920009Y-117423866D01*
X166010924Y-117643356D01*
X166010931Y-117643371D01*
X166129721Y-117849122D01*
X166129727Y-117849129D01*
X166193805Y-117932639D01*
X166867545Y-117258899D01*
X166960343Y-117397780D01*
X167082220Y-117519657D01*
X167221099Y-117612453D01*
X166547359Y-118286193D01*
X166547359Y-118286194D01*
X166630868Y-118350272D01*
X166836628Y-118469068D01*
X166836643Y-118469075D01*
X167056133Y-118559990D01*
X167285643Y-118621488D01*
X167521191Y-118652498D01*
X167521209Y-118652500D01*
X167758791Y-118652500D01*
X167758808Y-118652498D01*
X167994356Y-118621488D01*
X168223866Y-118559990D01*
X168443356Y-118469075D01*
X168443370Y-118469068D01*
X168556030Y-118404024D01*
X168623930Y-118387551D01*
X168689957Y-118410403D01*
X168733147Y-118465324D01*
X168739789Y-118534878D01*
X168725418Y-118573410D01*
X168685300Y-118642897D01*
X168685295Y-118642907D01*
X168601876Y-118844300D01*
X168545455Y-119054870D01*
X168517000Y-119270993D01*
X168517000Y-119489006D01*
X168539131Y-119657101D01*
X168545455Y-119705131D01*
X168575690Y-119817973D01*
X168601876Y-119915699D01*
X168685295Y-120117092D01*
X168685300Y-120117102D01*
X168725418Y-120186589D01*
X168741890Y-120254489D01*
X168719037Y-120320516D01*
X168664115Y-120363706D01*
X168594562Y-120370347D01*
X168556030Y-120355975D01*
X168443371Y-120290931D01*
X168443356Y-120290924D01*
X168223866Y-120200009D01*
X167994356Y-120138511D01*
X167758808Y-120107501D01*
X167758791Y-120107500D01*
X167521209Y-120107500D01*
X167521191Y-120107501D01*
X167285643Y-120138511D01*
X167056133Y-120200009D01*
X166836643Y-120290924D01*
X166836628Y-120290931D01*
X166630875Y-120409723D01*
X166630861Y-120409732D01*
X166547359Y-120473804D01*
X166547359Y-120473805D01*
X167221100Y-121147546D01*
X167082220Y-121240343D01*
X166960343Y-121362220D01*
X166867546Y-121501100D01*
X166193805Y-120827359D01*
X166193804Y-120827359D01*
X166129732Y-120910861D01*
X166129723Y-120910875D01*
X166010931Y-121116628D01*
X166010924Y-121116643D01*
X165920009Y-121336133D01*
X165858511Y-121565643D01*
X165827501Y-121801191D01*
X165827500Y-121801208D01*
X165827500Y-122038791D01*
X165827501Y-122038808D01*
X165858511Y-122274356D01*
X165920009Y-122503866D01*
X166010924Y-122723356D01*
X166010931Y-122723371D01*
X166129721Y-122929122D01*
X166129727Y-122929129D01*
X166193805Y-123012639D01*
X166867545Y-122338899D01*
X166960343Y-122477780D01*
X167082220Y-122599657D01*
X167221099Y-122692453D01*
X166547359Y-123366193D01*
X166547359Y-123366194D01*
X166630868Y-123430272D01*
X166836628Y-123549068D01*
X166836643Y-123549075D01*
X167056133Y-123639990D01*
X167285643Y-123701488D01*
X167521191Y-123732498D01*
X167521209Y-123732500D01*
X167758791Y-123732500D01*
X167758808Y-123732498D01*
X167994356Y-123701488D01*
X168223866Y-123639990D01*
X168443356Y-123549075D01*
X168443370Y-123549068D01*
X168649125Y-123430275D01*
X168649132Y-123430270D01*
X168732639Y-123366193D01*
X168058899Y-122692453D01*
X168197780Y-122599657D01*
X168319657Y-122477780D01*
X168412453Y-122338899D01*
X169086193Y-123012639D01*
X169150270Y-122929132D01*
X169150275Y-122929125D01*
X169269068Y-122723370D01*
X169269075Y-122723356D01*
X169359990Y-122503866D01*
X169421488Y-122274356D01*
X169452498Y-122038808D01*
X169452500Y-122038791D01*
X169452500Y-121801208D01*
X169452498Y-121801191D01*
X169421488Y-121565643D01*
X169359990Y-121336133D01*
X169269075Y-121116643D01*
X169269068Y-121116629D01*
X169204024Y-121003969D01*
X169187551Y-120936069D01*
X169210404Y-120870042D01*
X169265325Y-120826851D01*
X169334878Y-120820210D01*
X169373409Y-120834581D01*
X169402728Y-120851508D01*
X169442892Y-120874697D01*
X169442907Y-120874704D01*
X169530232Y-120910875D01*
X169644299Y-120958123D01*
X169854869Y-121014545D01*
X170071001Y-121043000D01*
X170071008Y-121043000D01*
X170288992Y-121043000D01*
X170288999Y-121043000D01*
X170505131Y-121014545D01*
X170715701Y-120958123D01*
X170917104Y-120874699D01*
X170986590Y-120834581D01*
X171054488Y-120818109D01*
X171120515Y-120840961D01*
X171163705Y-120895882D01*
X171170347Y-120965436D01*
X171155976Y-121003968D01*
X171090929Y-121116633D01*
X171090924Y-121116643D01*
X171000009Y-121336133D01*
X170938511Y-121565643D01*
X170907501Y-121801191D01*
X170907500Y-121801208D01*
X170907500Y-122038791D01*
X170907501Y-122038808D01*
X170938511Y-122274356D01*
X171000009Y-122503866D01*
X171090924Y-122723356D01*
X171090931Y-122723371D01*
X171209721Y-122929122D01*
X171209727Y-122929129D01*
X171273805Y-123012639D01*
X171947545Y-122338899D01*
X172040343Y-122477780D01*
X172162220Y-122599657D01*
X172301099Y-122692453D01*
X171627359Y-123366193D01*
X171627359Y-123366194D01*
X171710868Y-123430272D01*
X171916628Y-123549068D01*
X171916643Y-123549075D01*
X172136133Y-123639990D01*
X172365643Y-123701488D01*
X172601191Y-123732498D01*
X172601209Y-123732500D01*
X172838791Y-123732500D01*
X172838808Y-123732498D01*
X173074356Y-123701488D01*
X173303866Y-123639990D01*
X173523356Y-123549075D01*
X173523370Y-123549068D01*
X173729125Y-123430275D01*
X173729132Y-123430270D01*
X173812639Y-123366193D01*
X173138899Y-122692453D01*
X173277780Y-122599657D01*
X173399657Y-122477780D01*
X173492453Y-122338899D01*
X174166193Y-123012639D01*
X174230270Y-122929132D01*
X174230275Y-122929125D01*
X174349068Y-122723370D01*
X174349075Y-122723356D01*
X174439990Y-122503866D01*
X174501488Y-122274356D01*
X174532498Y-122038808D01*
X174532500Y-122038791D01*
X174532500Y-121801208D01*
X174532498Y-121801191D01*
X174501488Y-121565643D01*
X174439990Y-121336133D01*
X174349075Y-121116643D01*
X174349068Y-121116628D01*
X174230272Y-120910868D01*
X174166194Y-120827359D01*
X174166193Y-120827359D01*
X173492453Y-121501099D01*
X173399657Y-121362220D01*
X173277780Y-121240343D01*
X173138899Y-121147545D01*
X173812639Y-120473805D01*
X173812639Y-120473804D01*
X173729129Y-120409727D01*
X173729122Y-120409721D01*
X173523371Y-120290931D01*
X173523356Y-120290924D01*
X173303866Y-120200009D01*
X173074356Y-120138511D01*
X172838808Y-120107501D01*
X172838791Y-120107500D01*
X172601209Y-120107500D01*
X172601191Y-120107501D01*
X172365643Y-120138511D01*
X172136133Y-120200009D01*
X171916643Y-120290924D01*
X171916633Y-120290929D01*
X171803968Y-120355976D01*
X171736068Y-120372448D01*
X171670041Y-120349595D01*
X171626851Y-120294673D01*
X171620210Y-120225120D01*
X171634582Y-120186589D01*
X171674699Y-120117104D01*
X171758123Y-119915701D01*
X171814545Y-119705131D01*
X171843000Y-119488999D01*
X171843000Y-119271001D01*
X171814545Y-119054869D01*
X171758123Y-118844299D01*
X171717844Y-118747057D01*
X171674704Y-118642907D01*
X171674697Y-118642892D01*
X171634582Y-118573411D01*
X171618109Y-118505511D01*
X171640962Y-118439484D01*
X171695883Y-118396293D01*
X171765436Y-118389652D01*
X171803969Y-118404024D01*
X171916629Y-118469068D01*
X171916643Y-118469075D01*
X172136133Y-118559990D01*
X172365643Y-118621488D01*
X172601191Y-118652498D01*
X172601209Y-118652500D01*
X172838791Y-118652500D01*
X172838808Y-118652498D01*
X173074356Y-118621488D01*
X173303866Y-118559990D01*
X173523356Y-118469075D01*
X173523370Y-118469068D01*
X173729125Y-118350275D01*
X173729132Y-118350270D01*
X173812639Y-118286193D01*
X173138899Y-117612453D01*
X173277780Y-117519657D01*
X173399657Y-117397780D01*
X173492453Y-117258899D01*
X174166193Y-117932639D01*
X174230270Y-117849132D01*
X174230275Y-117849125D01*
X174349068Y-117643370D01*
X174349075Y-117643356D01*
X174439990Y-117423866D01*
X174501488Y-117194356D01*
X174532498Y-116958808D01*
X174532500Y-116958791D01*
X174532500Y-116721208D01*
X174532498Y-116721191D01*
X174501488Y-116485643D01*
X174439990Y-116256133D01*
X174349075Y-116036643D01*
X174349068Y-116036628D01*
X174230272Y-115830868D01*
X174166194Y-115747359D01*
X174166193Y-115747359D01*
X173492453Y-116421099D01*
X173399657Y-116282220D01*
X173277780Y-116160343D01*
X173138899Y-116067546D01*
X173812639Y-115393805D01*
X173812639Y-115393804D01*
X173729129Y-115329727D01*
X173729122Y-115329721D01*
X173523371Y-115210931D01*
X173523356Y-115210924D01*
X173303866Y-115120009D01*
X173074356Y-115058511D01*
X172838808Y-115027501D01*
X172838791Y-115027500D01*
X172601209Y-115027500D01*
X172601191Y-115027501D01*
X172365643Y-115058511D01*
X172136133Y-115120009D01*
X171916643Y-115210924D01*
X171916628Y-115210931D01*
X171710875Y-115329723D01*
X171710861Y-115329732D01*
X171627359Y-115393804D01*
X171627359Y-115393805D01*
X172301100Y-116067546D01*
X172162220Y-116160343D01*
X172040343Y-116282220D01*
X171947546Y-116421100D01*
X171273805Y-115747359D01*
X171273804Y-115747359D01*
X171209732Y-115830861D01*
X171209723Y-115830875D01*
X171090931Y-116036628D01*
X171090924Y-116036643D01*
X171000009Y-116256133D01*
X170938511Y-116485643D01*
X170907501Y-116721191D01*
X170907500Y-116721208D01*
X170907500Y-116958791D01*
X170907501Y-116958808D01*
X170938511Y-117194356D01*
X171000009Y-117423866D01*
X171090924Y-117643356D01*
X171090931Y-117643371D01*
X171155975Y-117756030D01*
X171172448Y-117823930D01*
X171149595Y-117889957D01*
X171094674Y-117933148D01*
X171025121Y-117939789D01*
X170986589Y-117925418D01*
X170925168Y-117889957D01*
X170917104Y-117885301D01*
X170917102Y-117885300D01*
X170917092Y-117885295D01*
X170715699Y-117801876D01*
X170617973Y-117775690D01*
X170505131Y-117745455D01*
X170457101Y-117739131D01*
X170289006Y-117717000D01*
X170288999Y-117717000D01*
X170071001Y-117717000D01*
X170070993Y-117717000D01*
X169878883Y-117742293D01*
X169854869Y-117745455D01*
X169815403Y-117756030D01*
X169644300Y-117801876D01*
X169442907Y-117885295D01*
X169442897Y-117885300D01*
X169373410Y-117925418D01*
X169305509Y-117941889D01*
X169239483Y-117919037D01*
X169196293Y-117864115D01*
X169189652Y-117794561D01*
X169204024Y-117756030D01*
X169269068Y-117643370D01*
X169269075Y-117643356D01*
X169359990Y-117423866D01*
X169421488Y-117194356D01*
X169452498Y-116958808D01*
X169452500Y-116958791D01*
X169452500Y-116721208D01*
X169452498Y-116721191D01*
X169421488Y-116485643D01*
X169359990Y-116256133D01*
X169269075Y-116036643D01*
X169269068Y-116036628D01*
X169150272Y-115830868D01*
X169086194Y-115747359D01*
X169086193Y-115747359D01*
X168412453Y-116421099D01*
X168319657Y-116282220D01*
X168197780Y-116160343D01*
X168058899Y-116067546D01*
X168732639Y-115393805D01*
X168732639Y-115393804D01*
X168649129Y-115329727D01*
X168649122Y-115329721D01*
X168443371Y-115210931D01*
X168443356Y-115210924D01*
X168223866Y-115120009D01*
X167994356Y-115058511D01*
X167758808Y-115027501D01*
X167758791Y-115027500D01*
X167521209Y-115027500D01*
X167521191Y-115027501D01*
X167285643Y-115058511D01*
X167056133Y-115120009D01*
X166836643Y-115210924D01*
X166836628Y-115210931D01*
X166630875Y-115329723D01*
X166630861Y-115329732D01*
X166547359Y-115393804D01*
X166547359Y-115393805D01*
X167221100Y-116067546D01*
X167082220Y-116160343D01*
X166960343Y-116282220D01*
X166867546Y-116421100D01*
X166193805Y-115747359D01*
X166193804Y-115747359D01*
X166129732Y-115830861D01*
X166129723Y-115830875D01*
X166010931Y-116036628D01*
X166010924Y-116036643D01*
X165920009Y-116256133D01*
X165858511Y-116485643D01*
X165827501Y-116721191D01*
X165827500Y-116721208D01*
X136432500Y-116721208D01*
X136432498Y-116721191D01*
X136401488Y-116485643D01*
X136339990Y-116256133D01*
X136249075Y-116036643D01*
X136249068Y-116036628D01*
X136130272Y-115830868D01*
X136066194Y-115747359D01*
X136066193Y-115747359D01*
X135392453Y-116421099D01*
X135299657Y-116282220D01*
X135177780Y-116160343D01*
X135038899Y-116067546D01*
X135712639Y-115393805D01*
X135712639Y-115393804D01*
X135629129Y-115329727D01*
X135629122Y-115329721D01*
X135423371Y-115210931D01*
X135423356Y-115210924D01*
X135203866Y-115120009D01*
X134974356Y-115058511D01*
X134738808Y-115027501D01*
X134738791Y-115027500D01*
X134501209Y-115027500D01*
X134501191Y-115027501D01*
X134265643Y-115058511D01*
X134036133Y-115120009D01*
X133816643Y-115210924D01*
X133816628Y-115210931D01*
X133610875Y-115329723D01*
X133610861Y-115329732D01*
X133527359Y-115393804D01*
X133527359Y-115393805D01*
X134201100Y-116067546D01*
X134062220Y-116160343D01*
X133940343Y-116282220D01*
X133847546Y-116421100D01*
X133173805Y-115747359D01*
X133173804Y-115747359D01*
X133109732Y-115830861D01*
X133109723Y-115830875D01*
X132990931Y-116036628D01*
X132990924Y-116036643D01*
X132900009Y-116256133D01*
X132838511Y-116485643D01*
X132807501Y-116721191D01*
X132807500Y-116721208D01*
X132807500Y-116958791D01*
X132807501Y-116958808D01*
X132838511Y-117194356D01*
X132900009Y-117423866D01*
X132990924Y-117643356D01*
X132990931Y-117643371D01*
X133055975Y-117756030D01*
X133072448Y-117823930D01*
X133049595Y-117889957D01*
X132994674Y-117933148D01*
X132925121Y-117939789D01*
X132886589Y-117925418D01*
X132825168Y-117889957D01*
X132817104Y-117885301D01*
X132817102Y-117885300D01*
X132817092Y-117885295D01*
X132615699Y-117801876D01*
X132517973Y-117775690D01*
X132405131Y-117745455D01*
X132357101Y-117739131D01*
X132189006Y-117717000D01*
X132188999Y-117717000D01*
X131971001Y-117717000D01*
X131970993Y-117717000D01*
X131778883Y-117742293D01*
X131754869Y-117745455D01*
X131715403Y-117756030D01*
X131544300Y-117801876D01*
X131342907Y-117885295D01*
X131342897Y-117885300D01*
X131273410Y-117925418D01*
X131205509Y-117941889D01*
X131139483Y-117919037D01*
X131096293Y-117864115D01*
X131089652Y-117794561D01*
X131104024Y-117756030D01*
X131169068Y-117643370D01*
X131169075Y-117643356D01*
X131259990Y-117423866D01*
X131321488Y-117194356D01*
X131352498Y-116958808D01*
X131352500Y-116958791D01*
X131352500Y-116721208D01*
X131352498Y-116721191D01*
X131321488Y-116485643D01*
X131259990Y-116256133D01*
X131169075Y-116036643D01*
X131169068Y-116036628D01*
X131050272Y-115830868D01*
X130986194Y-115747359D01*
X130986193Y-115747359D01*
X130312453Y-116421099D01*
X130219657Y-116282220D01*
X130097780Y-116160343D01*
X129958899Y-116067546D01*
X130632639Y-115393805D01*
X130632639Y-115393804D01*
X130549129Y-115329727D01*
X130549122Y-115329721D01*
X130343371Y-115210931D01*
X130343356Y-115210924D01*
X130123866Y-115120009D01*
X129894356Y-115058511D01*
X129658808Y-115027501D01*
X129658791Y-115027500D01*
X129421209Y-115027500D01*
X129421191Y-115027501D01*
X129185643Y-115058511D01*
X128956133Y-115120009D01*
X128736643Y-115210924D01*
X128736628Y-115210931D01*
X128530875Y-115329723D01*
X128530861Y-115329732D01*
X128447359Y-115393804D01*
X128447359Y-115393805D01*
X129121100Y-116067546D01*
X128982220Y-116160343D01*
X128860343Y-116282220D01*
X128767546Y-116421100D01*
X128093805Y-115747359D01*
X128093804Y-115747359D01*
X128029732Y-115830861D01*
X128029723Y-115830875D01*
X127910931Y-116036628D01*
X127910924Y-116036643D01*
X127820009Y-116256133D01*
X127758511Y-116485643D01*
X127727501Y-116721191D01*
X127727500Y-116721208D01*
X127000500Y-116721208D01*
X127000500Y-111300000D01*
X130802769Y-111300000D01*
X131696988Y-111300000D01*
X131664075Y-111357007D01*
X131630000Y-111484174D01*
X131630000Y-111615826D01*
X131664075Y-111742993D01*
X131696988Y-111800000D01*
X130802769Y-111800000D01*
X130813242Y-111866126D01*
X130813242Y-111866129D01*
X130878904Y-112068217D01*
X130975379Y-112257557D01*
X131100272Y-112429459D01*
X131100276Y-112429464D01*
X131250535Y-112579723D01*
X131250540Y-112579727D01*
X131422442Y-112704620D01*
X131611782Y-112801095D01*
X131813871Y-112866757D01*
X131880000Y-112877231D01*
X131880000Y-111983012D01*
X131937007Y-112015925D01*
X132064174Y-112050000D01*
X132195826Y-112050000D01*
X132322993Y-112015925D01*
X132380000Y-111983012D01*
X132380000Y-112877230D01*
X132446126Y-112866757D01*
X132446129Y-112866757D01*
X132648217Y-112801095D01*
X132837557Y-112704620D01*
X133009458Y-112579728D01*
X133123133Y-112466053D01*
X133184456Y-112432568D01*
X133254148Y-112437552D01*
X133310082Y-112479423D01*
X133326997Y-112510401D01*
X133376202Y-112642328D01*
X133376206Y-112642335D01*
X133462452Y-112757544D01*
X133462455Y-112757547D01*
X133577664Y-112843793D01*
X133577671Y-112843797D01*
X133712517Y-112894091D01*
X133712516Y-112894091D01*
X133719444Y-112894835D01*
X133772127Y-112900500D01*
X135567872Y-112900499D01*
X135627483Y-112894091D01*
X135762331Y-112843796D01*
X135877546Y-112757546D01*
X135963796Y-112642331D01*
X136014091Y-112507483D01*
X136020500Y-112447873D01*
X136020499Y-110652128D01*
X136014091Y-110592517D01*
X136013002Y-110589598D01*
X135963797Y-110457671D01*
X135963793Y-110457664D01*
X135877547Y-110342455D01*
X135877544Y-110342452D01*
X135762335Y-110256206D01*
X135762328Y-110256202D01*
X135627482Y-110205908D01*
X135627483Y-110205908D01*
X135567883Y-110199501D01*
X135567881Y-110199500D01*
X135567873Y-110199500D01*
X135567864Y-110199500D01*
X133772129Y-110199500D01*
X133772123Y-110199501D01*
X133712516Y-110205908D01*
X133577671Y-110256202D01*
X133577664Y-110256206D01*
X133462455Y-110342452D01*
X133462452Y-110342455D01*
X133376206Y-110457664D01*
X133376202Y-110457671D01*
X133326997Y-110589598D01*
X133285126Y-110645532D01*
X133219661Y-110669949D01*
X133151388Y-110655097D01*
X133123134Y-110633946D01*
X133009464Y-110520276D01*
X133009459Y-110520272D01*
X132837557Y-110395379D01*
X132648215Y-110298903D01*
X132446124Y-110233241D01*
X132380000Y-110222768D01*
X132380000Y-111116988D01*
X132322993Y-111084075D01*
X132195826Y-111050000D01*
X132064174Y-111050000D01*
X131937007Y-111084075D01*
X131880000Y-111116988D01*
X131880000Y-110222768D01*
X131879999Y-110222768D01*
X131813875Y-110233241D01*
X131611784Y-110298903D01*
X131422442Y-110395379D01*
X131250540Y-110520272D01*
X131250535Y-110520276D01*
X131100276Y-110670535D01*
X131100272Y-110670540D01*
X130975379Y-110842442D01*
X130878904Y-111031782D01*
X130813242Y-111233870D01*
X130813242Y-111233873D01*
X130802769Y-111300000D01*
X127000500Y-111300000D01*
X127000500Y-101481208D01*
X165827500Y-101481208D01*
X165827500Y-101718791D01*
X165827501Y-101718808D01*
X165858511Y-101954356D01*
X165920009Y-102183866D01*
X166010924Y-102403356D01*
X166010931Y-102403371D01*
X166129721Y-102609122D01*
X166129727Y-102609129D01*
X166193805Y-102692639D01*
X166867545Y-102018899D01*
X166960343Y-102157780D01*
X167082220Y-102279657D01*
X167221099Y-102372453D01*
X166547359Y-103046193D01*
X166547359Y-103046194D01*
X166630868Y-103110272D01*
X166836628Y-103229068D01*
X166836643Y-103229075D01*
X167056133Y-103319990D01*
X167285643Y-103381488D01*
X167521191Y-103412498D01*
X167521209Y-103412500D01*
X167758791Y-103412500D01*
X167758808Y-103412498D01*
X167994356Y-103381488D01*
X168223866Y-103319990D01*
X168443356Y-103229075D01*
X168443370Y-103229068D01*
X168556030Y-103164024D01*
X168623930Y-103147551D01*
X168689957Y-103170403D01*
X168733147Y-103225324D01*
X168739789Y-103294878D01*
X168725418Y-103333410D01*
X168685300Y-103402897D01*
X168685295Y-103402907D01*
X168601876Y-103604300D01*
X168545455Y-103814870D01*
X168517000Y-104030993D01*
X168517000Y-104249006D01*
X168539131Y-104417101D01*
X168545455Y-104465131D01*
X168575690Y-104577973D01*
X168601876Y-104675699D01*
X168685295Y-104877092D01*
X168685300Y-104877102D01*
X168725418Y-104946589D01*
X168741890Y-105014489D01*
X168719037Y-105080516D01*
X168664115Y-105123706D01*
X168594562Y-105130347D01*
X168556030Y-105115975D01*
X168443371Y-105050931D01*
X168443356Y-105050924D01*
X168223866Y-104960009D01*
X167994356Y-104898511D01*
X167758808Y-104867501D01*
X167758791Y-104867500D01*
X167521209Y-104867500D01*
X167521191Y-104867501D01*
X167285643Y-104898511D01*
X167056133Y-104960009D01*
X166836643Y-105050924D01*
X166836628Y-105050931D01*
X166630875Y-105169723D01*
X166630861Y-105169732D01*
X166547359Y-105233804D01*
X166547359Y-105233805D01*
X167221100Y-105907546D01*
X167082220Y-106000343D01*
X166960343Y-106122220D01*
X166867546Y-106261100D01*
X166193805Y-105587359D01*
X166193804Y-105587359D01*
X166129732Y-105670861D01*
X166129723Y-105670875D01*
X166010931Y-105876628D01*
X166010924Y-105876643D01*
X165920009Y-106096133D01*
X165858511Y-106325643D01*
X165827501Y-106561191D01*
X165827500Y-106561208D01*
X165827500Y-106798791D01*
X165827501Y-106798808D01*
X165858511Y-107034356D01*
X165920009Y-107263866D01*
X166010924Y-107483356D01*
X166010931Y-107483371D01*
X166129721Y-107689122D01*
X166129727Y-107689129D01*
X166193805Y-107772639D01*
X166867545Y-107098899D01*
X166960343Y-107237780D01*
X167082220Y-107359657D01*
X167221099Y-107452453D01*
X166547359Y-108126193D01*
X166547359Y-108126194D01*
X166630868Y-108190272D01*
X166836628Y-108309068D01*
X166836643Y-108309075D01*
X167056133Y-108399990D01*
X167285643Y-108461488D01*
X167521191Y-108492498D01*
X167521209Y-108492500D01*
X167758791Y-108492500D01*
X167758808Y-108492498D01*
X167994356Y-108461488D01*
X168223866Y-108399990D01*
X168443356Y-108309075D01*
X168443370Y-108309068D01*
X168649125Y-108190275D01*
X168649132Y-108190270D01*
X168732639Y-108126193D01*
X168058899Y-107452453D01*
X168197780Y-107359657D01*
X168319657Y-107237780D01*
X168412453Y-107098899D01*
X169086193Y-107772639D01*
X169150270Y-107689132D01*
X169150275Y-107689125D01*
X169269068Y-107483370D01*
X169269075Y-107483356D01*
X169359990Y-107263866D01*
X169421488Y-107034356D01*
X169452498Y-106798808D01*
X169452500Y-106798791D01*
X169452500Y-106561208D01*
X169452498Y-106561191D01*
X169421488Y-106325643D01*
X169359990Y-106096133D01*
X169269075Y-105876643D01*
X169269068Y-105876629D01*
X169204024Y-105763969D01*
X169187551Y-105696069D01*
X169210404Y-105630042D01*
X169265325Y-105586851D01*
X169334878Y-105580210D01*
X169373409Y-105594581D01*
X169402728Y-105611508D01*
X169442892Y-105634697D01*
X169442907Y-105634704D01*
X169530232Y-105670875D01*
X169644299Y-105718123D01*
X169854869Y-105774545D01*
X170071001Y-105803000D01*
X170071008Y-105803000D01*
X170288992Y-105803000D01*
X170288999Y-105803000D01*
X170505131Y-105774545D01*
X170715701Y-105718123D01*
X170917104Y-105634699D01*
X170986590Y-105594581D01*
X171054488Y-105578109D01*
X171120515Y-105600961D01*
X171163705Y-105655882D01*
X171170347Y-105725436D01*
X171155976Y-105763968D01*
X171090929Y-105876633D01*
X171090924Y-105876643D01*
X171000009Y-106096133D01*
X170938511Y-106325643D01*
X170907501Y-106561191D01*
X170907500Y-106561208D01*
X170907500Y-106798791D01*
X170907501Y-106798808D01*
X170938511Y-107034356D01*
X171000009Y-107263866D01*
X171090924Y-107483356D01*
X171090931Y-107483371D01*
X171209721Y-107689122D01*
X171209727Y-107689129D01*
X171273805Y-107772639D01*
X171947545Y-107098899D01*
X172040343Y-107237780D01*
X172162220Y-107359657D01*
X172301099Y-107452453D01*
X171627359Y-108126193D01*
X171627359Y-108126194D01*
X171710868Y-108190272D01*
X171916628Y-108309068D01*
X171916643Y-108309075D01*
X172136133Y-108399990D01*
X172365643Y-108461488D01*
X172601191Y-108492498D01*
X172601209Y-108492500D01*
X172838791Y-108492500D01*
X172838808Y-108492498D01*
X173074356Y-108461488D01*
X173303866Y-108399990D01*
X173523356Y-108309075D01*
X173523370Y-108309068D01*
X173729125Y-108190275D01*
X173729132Y-108190270D01*
X173812639Y-108126193D01*
X173138899Y-107452453D01*
X173277780Y-107359657D01*
X173399657Y-107237780D01*
X173492453Y-107098899D01*
X174166193Y-107772639D01*
X174230270Y-107689132D01*
X174230275Y-107689125D01*
X174349068Y-107483370D01*
X174349075Y-107483356D01*
X174439990Y-107263866D01*
X174501488Y-107034356D01*
X174532498Y-106798808D01*
X174532500Y-106798791D01*
X174532500Y-106561208D01*
X174532498Y-106561191D01*
X174501488Y-106325643D01*
X174439990Y-106096133D01*
X174349075Y-105876643D01*
X174349068Y-105876628D01*
X174230272Y-105670868D01*
X174166194Y-105587359D01*
X174166193Y-105587359D01*
X173492453Y-106261099D01*
X173399657Y-106122220D01*
X173277780Y-106000343D01*
X173138899Y-105907545D01*
X173812639Y-105233805D01*
X173812639Y-105233804D01*
X173729129Y-105169727D01*
X173729122Y-105169721D01*
X173523371Y-105050931D01*
X173523356Y-105050924D01*
X173303866Y-104960009D01*
X173074356Y-104898511D01*
X172838808Y-104867501D01*
X172838791Y-104867500D01*
X172601209Y-104867500D01*
X172601191Y-104867501D01*
X172365643Y-104898511D01*
X172136133Y-104960009D01*
X171916643Y-105050924D01*
X171916633Y-105050929D01*
X171803968Y-105115976D01*
X171736068Y-105132448D01*
X171670041Y-105109595D01*
X171626851Y-105054673D01*
X171620210Y-104985120D01*
X171634582Y-104946589D01*
X171674699Y-104877104D01*
X171758123Y-104675701D01*
X171814545Y-104465131D01*
X171843000Y-104248999D01*
X171843000Y-104031001D01*
X171814545Y-103814869D01*
X171758123Y-103604299D01*
X171717844Y-103507057D01*
X171674704Y-103402907D01*
X171674697Y-103402892D01*
X171634582Y-103333411D01*
X171618109Y-103265511D01*
X171640962Y-103199484D01*
X171695883Y-103156293D01*
X171765436Y-103149652D01*
X171803969Y-103164024D01*
X171916629Y-103229068D01*
X171916643Y-103229075D01*
X172136133Y-103319990D01*
X172365643Y-103381488D01*
X172601191Y-103412498D01*
X172601209Y-103412500D01*
X172838791Y-103412500D01*
X172838808Y-103412498D01*
X173074356Y-103381488D01*
X173303866Y-103319990D01*
X173523356Y-103229075D01*
X173523370Y-103229068D01*
X173729125Y-103110275D01*
X173729132Y-103110270D01*
X173812639Y-103046193D01*
X173138899Y-102372453D01*
X173277780Y-102279657D01*
X173399657Y-102157780D01*
X173492453Y-102018899D01*
X174166193Y-102692639D01*
X174230270Y-102609132D01*
X174230275Y-102609125D01*
X174349068Y-102403370D01*
X174349075Y-102403356D01*
X174439990Y-102183866D01*
X174501488Y-101954356D01*
X174532498Y-101718808D01*
X174532500Y-101718791D01*
X174532500Y-101481208D01*
X174532498Y-101481191D01*
X174501488Y-101245643D01*
X174439990Y-101016133D01*
X174349075Y-100796643D01*
X174349068Y-100796628D01*
X174230272Y-100590868D01*
X174166194Y-100507359D01*
X174166193Y-100507359D01*
X173492453Y-101181099D01*
X173399657Y-101042220D01*
X173277780Y-100920343D01*
X173138899Y-100827546D01*
X173812639Y-100153805D01*
X173812639Y-100153804D01*
X173729129Y-100089727D01*
X173729122Y-100089721D01*
X173523371Y-99970931D01*
X173523356Y-99970924D01*
X173303866Y-99880009D01*
X173074356Y-99818511D01*
X172838808Y-99787501D01*
X172838791Y-99787500D01*
X172601209Y-99787500D01*
X172601191Y-99787501D01*
X172365643Y-99818511D01*
X172136133Y-99880009D01*
X171916643Y-99970924D01*
X171916628Y-99970931D01*
X171710875Y-100089723D01*
X171710861Y-100089732D01*
X171627359Y-100153804D01*
X171627359Y-100153805D01*
X172301100Y-100827546D01*
X172162220Y-100920343D01*
X172040343Y-101042220D01*
X171947546Y-101181100D01*
X171273805Y-100507359D01*
X171273804Y-100507359D01*
X171209732Y-100590861D01*
X171209723Y-100590875D01*
X171090931Y-100796628D01*
X171090924Y-100796643D01*
X171000009Y-101016133D01*
X170938511Y-101245643D01*
X170907501Y-101481191D01*
X170907500Y-101481208D01*
X170907500Y-101718791D01*
X170907501Y-101718808D01*
X170938511Y-101954356D01*
X171000009Y-102183866D01*
X171090924Y-102403356D01*
X171090931Y-102403371D01*
X171155975Y-102516030D01*
X171172448Y-102583930D01*
X171149595Y-102649957D01*
X171094674Y-102693148D01*
X171025121Y-102699789D01*
X170986589Y-102685418D01*
X170925168Y-102649957D01*
X170917104Y-102645301D01*
X170917102Y-102645300D01*
X170917092Y-102645295D01*
X170715699Y-102561876D01*
X170617973Y-102535690D01*
X170505131Y-102505455D01*
X170457101Y-102499131D01*
X170289006Y-102477000D01*
X170288999Y-102477000D01*
X170071001Y-102477000D01*
X170070993Y-102477000D01*
X169878883Y-102502293D01*
X169854869Y-102505455D01*
X169815403Y-102516030D01*
X169644300Y-102561876D01*
X169442907Y-102645295D01*
X169442897Y-102645300D01*
X169373410Y-102685418D01*
X169305509Y-102701889D01*
X169239483Y-102679037D01*
X169196293Y-102624115D01*
X169189652Y-102554561D01*
X169204024Y-102516030D01*
X169269068Y-102403370D01*
X169269075Y-102403356D01*
X169359990Y-102183866D01*
X169421488Y-101954356D01*
X169452498Y-101718808D01*
X169452500Y-101718791D01*
X169452500Y-101481208D01*
X169452498Y-101481191D01*
X169421488Y-101245643D01*
X169359990Y-101016133D01*
X169269075Y-100796643D01*
X169269068Y-100796628D01*
X169150272Y-100590868D01*
X169086194Y-100507359D01*
X169086193Y-100507359D01*
X168412453Y-101181099D01*
X168319657Y-101042220D01*
X168197780Y-100920343D01*
X168058899Y-100827546D01*
X168732639Y-100153805D01*
X168732639Y-100153804D01*
X168649129Y-100089727D01*
X168649122Y-100089721D01*
X168443371Y-99970931D01*
X168443356Y-99970924D01*
X168223866Y-99880009D01*
X167994356Y-99818511D01*
X167758808Y-99787501D01*
X167758791Y-99787500D01*
X167521209Y-99787500D01*
X167521191Y-99787501D01*
X167285643Y-99818511D01*
X167056133Y-99880009D01*
X166836643Y-99970924D01*
X166836628Y-99970931D01*
X166630875Y-100089723D01*
X166630861Y-100089732D01*
X166547359Y-100153804D01*
X166547359Y-100153805D01*
X167221100Y-100827546D01*
X167082220Y-100920343D01*
X166960343Y-101042220D01*
X166867546Y-101181100D01*
X166193805Y-100507359D01*
X166193804Y-100507359D01*
X166129732Y-100590861D01*
X166129723Y-100590875D01*
X166010931Y-100796628D01*
X166010924Y-100796643D01*
X165920009Y-101016133D01*
X165858511Y-101245643D01*
X165827501Y-101481191D01*
X165827500Y-101481208D01*
X127000500Y-101481208D01*
X127000500Y-78621208D01*
X127727500Y-78621208D01*
X127727500Y-78858791D01*
X127727501Y-78858808D01*
X127758511Y-79094356D01*
X127820009Y-79323866D01*
X127910924Y-79543356D01*
X127910931Y-79543371D01*
X128029721Y-79749122D01*
X128029727Y-79749129D01*
X128093805Y-79832639D01*
X128767545Y-79158899D01*
X128860343Y-79297780D01*
X128982220Y-79419657D01*
X129121099Y-79512453D01*
X128447359Y-80186193D01*
X128447359Y-80186194D01*
X128530868Y-80250272D01*
X128736628Y-80369068D01*
X128736643Y-80369075D01*
X128956133Y-80459990D01*
X129185643Y-80521488D01*
X129421191Y-80552498D01*
X129421209Y-80552500D01*
X129658791Y-80552500D01*
X129658808Y-80552498D01*
X129894356Y-80521488D01*
X130123866Y-80459990D01*
X130343356Y-80369075D01*
X130343370Y-80369068D01*
X130456030Y-80304024D01*
X130523930Y-80287551D01*
X130589957Y-80310403D01*
X130633147Y-80365324D01*
X130639789Y-80434878D01*
X130625418Y-80473410D01*
X130585300Y-80542897D01*
X130585295Y-80542907D01*
X130501876Y-80744300D01*
X130445455Y-80954870D01*
X130417000Y-81170993D01*
X130417000Y-81389006D01*
X130439131Y-81557101D01*
X130445455Y-81605131D01*
X130475690Y-81717973D01*
X130501876Y-81815699D01*
X130585295Y-82017092D01*
X130585300Y-82017102D01*
X130625418Y-82086589D01*
X130641890Y-82154489D01*
X130619037Y-82220516D01*
X130564115Y-82263706D01*
X130494562Y-82270347D01*
X130456030Y-82255975D01*
X130343371Y-82190931D01*
X130343356Y-82190924D01*
X130123866Y-82100009D01*
X129894356Y-82038511D01*
X129658808Y-82007501D01*
X129658791Y-82007500D01*
X129421209Y-82007500D01*
X129421191Y-82007501D01*
X129185643Y-82038511D01*
X128956133Y-82100009D01*
X128736643Y-82190924D01*
X128736628Y-82190931D01*
X128530875Y-82309723D01*
X128530861Y-82309732D01*
X128447359Y-82373804D01*
X128447359Y-82373805D01*
X129121100Y-83047546D01*
X128982220Y-83140343D01*
X128860343Y-83262220D01*
X128767546Y-83401100D01*
X128093805Y-82727359D01*
X128093804Y-82727359D01*
X128029732Y-82810861D01*
X128029723Y-82810875D01*
X127910931Y-83016628D01*
X127910924Y-83016643D01*
X127820009Y-83236133D01*
X127758511Y-83465643D01*
X127727501Y-83701191D01*
X127727500Y-83701208D01*
X127727500Y-83938791D01*
X127727501Y-83938808D01*
X127758511Y-84174356D01*
X127820009Y-84403866D01*
X127910924Y-84623356D01*
X127910931Y-84623371D01*
X128029721Y-84829122D01*
X128029727Y-84829129D01*
X128093805Y-84912639D01*
X128767545Y-84238899D01*
X128860343Y-84377780D01*
X128982220Y-84499657D01*
X129121099Y-84592453D01*
X128447359Y-85266193D01*
X128447359Y-85266194D01*
X128530868Y-85330272D01*
X128736628Y-85449068D01*
X128736643Y-85449075D01*
X128956133Y-85539990D01*
X129185643Y-85601488D01*
X129421191Y-85632498D01*
X129421209Y-85632500D01*
X129658791Y-85632500D01*
X129658808Y-85632498D01*
X129894356Y-85601488D01*
X130123866Y-85539990D01*
X130343356Y-85449075D01*
X130343370Y-85449068D01*
X130549125Y-85330275D01*
X130549132Y-85330270D01*
X130632639Y-85266193D01*
X129958899Y-84592453D01*
X130097780Y-84499657D01*
X130219657Y-84377780D01*
X130312453Y-84238899D01*
X130986193Y-84912639D01*
X131050270Y-84829132D01*
X131050275Y-84829125D01*
X131169068Y-84623370D01*
X131169075Y-84623356D01*
X131259990Y-84403866D01*
X131321488Y-84174356D01*
X131352498Y-83938808D01*
X131352500Y-83938791D01*
X131352500Y-83701208D01*
X131352498Y-83701191D01*
X131321488Y-83465643D01*
X131259990Y-83236133D01*
X131169075Y-83016643D01*
X131169068Y-83016629D01*
X131104024Y-82903969D01*
X131087551Y-82836069D01*
X131110404Y-82770042D01*
X131165325Y-82726851D01*
X131234878Y-82720210D01*
X131273409Y-82734581D01*
X131302728Y-82751508D01*
X131342892Y-82774697D01*
X131342907Y-82774704D01*
X131430232Y-82810875D01*
X131544299Y-82858123D01*
X131754869Y-82914545D01*
X131971001Y-82943000D01*
X131971008Y-82943000D01*
X132188992Y-82943000D01*
X132188999Y-82943000D01*
X132405131Y-82914545D01*
X132615701Y-82858123D01*
X132817104Y-82774699D01*
X132886590Y-82734581D01*
X132954488Y-82718109D01*
X133020515Y-82740961D01*
X133063705Y-82795882D01*
X133070347Y-82865436D01*
X133055976Y-82903968D01*
X132990929Y-83016633D01*
X132990924Y-83016643D01*
X132900009Y-83236133D01*
X132838511Y-83465643D01*
X132807501Y-83701191D01*
X132807500Y-83701208D01*
X132807500Y-83938791D01*
X132807501Y-83938808D01*
X132838511Y-84174356D01*
X132900009Y-84403866D01*
X132990924Y-84623356D01*
X132990931Y-84623371D01*
X133109721Y-84829122D01*
X133109727Y-84829129D01*
X133173805Y-84912639D01*
X133847545Y-84238899D01*
X133940343Y-84377780D01*
X134062220Y-84499657D01*
X134201099Y-84592453D01*
X133527359Y-85266193D01*
X133527359Y-85266194D01*
X133610868Y-85330272D01*
X133816628Y-85449068D01*
X133816643Y-85449075D01*
X134036133Y-85539990D01*
X134265643Y-85601488D01*
X134501191Y-85632498D01*
X134501209Y-85632500D01*
X134738791Y-85632500D01*
X134738808Y-85632498D01*
X134974356Y-85601488D01*
X135203866Y-85539990D01*
X135423356Y-85449075D01*
X135423370Y-85449068D01*
X135629125Y-85330275D01*
X135629132Y-85330270D01*
X135712639Y-85266193D01*
X135038899Y-84592453D01*
X135177780Y-84499657D01*
X135299657Y-84377780D01*
X135392453Y-84238899D01*
X136066193Y-84912639D01*
X136130270Y-84829132D01*
X136130275Y-84829125D01*
X136249068Y-84623370D01*
X136249075Y-84623356D01*
X136339990Y-84403866D01*
X136401488Y-84174356D01*
X136432498Y-83938808D01*
X136432500Y-83938791D01*
X136432500Y-83701208D01*
X136432498Y-83701191D01*
X136401488Y-83465643D01*
X136339990Y-83236133D01*
X136249075Y-83016643D01*
X136249068Y-83016628D01*
X136130272Y-82810868D01*
X136066194Y-82727359D01*
X136066193Y-82727359D01*
X135392453Y-83401099D01*
X135299657Y-83262220D01*
X135177780Y-83140343D01*
X135038899Y-83047545D01*
X135712639Y-82373805D01*
X135712639Y-82373804D01*
X135629129Y-82309727D01*
X135629122Y-82309721D01*
X135423371Y-82190931D01*
X135423356Y-82190924D01*
X135203866Y-82100009D01*
X134974356Y-82038511D01*
X134738808Y-82007501D01*
X134738791Y-82007500D01*
X134501209Y-82007500D01*
X134501191Y-82007501D01*
X134265643Y-82038511D01*
X134036133Y-82100009D01*
X133816643Y-82190924D01*
X133816633Y-82190929D01*
X133703968Y-82255976D01*
X133636068Y-82272448D01*
X133570041Y-82249595D01*
X133526851Y-82194673D01*
X133520210Y-82125120D01*
X133534582Y-82086589D01*
X133574699Y-82017104D01*
X133658123Y-81815701D01*
X133714545Y-81605131D01*
X133743000Y-81388999D01*
X133743000Y-81171001D01*
X133714545Y-80954869D01*
X133658123Y-80744299D01*
X133617844Y-80647057D01*
X133574704Y-80542907D01*
X133574697Y-80542892D01*
X133534582Y-80473411D01*
X133518109Y-80405511D01*
X133540962Y-80339484D01*
X133595883Y-80296293D01*
X133665436Y-80289652D01*
X133703969Y-80304024D01*
X133816629Y-80369068D01*
X133816643Y-80369075D01*
X134036133Y-80459990D01*
X134265643Y-80521488D01*
X134501191Y-80552498D01*
X134501209Y-80552500D01*
X134738791Y-80552500D01*
X134738808Y-80552498D01*
X134974356Y-80521488D01*
X135203866Y-80459990D01*
X135423356Y-80369075D01*
X135423370Y-80369068D01*
X135629125Y-80250275D01*
X135629132Y-80250270D01*
X135712639Y-80186193D01*
X135038899Y-79512453D01*
X135177780Y-79419657D01*
X135299657Y-79297780D01*
X135392453Y-79158899D01*
X136066193Y-79832639D01*
X136130270Y-79749132D01*
X136130275Y-79749125D01*
X136249068Y-79543370D01*
X136249075Y-79543356D01*
X136339990Y-79323866D01*
X136401488Y-79094356D01*
X136432498Y-78858808D01*
X136432500Y-78858791D01*
X136432500Y-78621208D01*
X136432498Y-78621191D01*
X136401488Y-78385643D01*
X136339990Y-78156133D01*
X136249075Y-77936643D01*
X136249068Y-77936628D01*
X136130272Y-77730868D01*
X136066194Y-77647359D01*
X136066193Y-77647359D01*
X135392453Y-78321099D01*
X135299657Y-78182220D01*
X135177780Y-78060343D01*
X135038899Y-77967546D01*
X135712639Y-77293805D01*
X135712639Y-77293804D01*
X135629129Y-77229727D01*
X135629122Y-77229721D01*
X135423371Y-77110931D01*
X135423356Y-77110924D01*
X135203866Y-77020009D01*
X134974356Y-76958511D01*
X134738808Y-76927501D01*
X134738791Y-76927500D01*
X134501209Y-76927500D01*
X134501191Y-76927501D01*
X134265643Y-76958511D01*
X134036133Y-77020009D01*
X133816643Y-77110924D01*
X133816628Y-77110931D01*
X133610875Y-77229723D01*
X133610861Y-77229732D01*
X133527359Y-77293804D01*
X133527359Y-77293805D01*
X134201100Y-77967546D01*
X134062220Y-78060343D01*
X133940343Y-78182220D01*
X133847546Y-78321100D01*
X133173805Y-77647359D01*
X133173804Y-77647359D01*
X133109732Y-77730861D01*
X133109723Y-77730875D01*
X132990931Y-77936628D01*
X132990924Y-77936643D01*
X132900009Y-78156133D01*
X132838511Y-78385643D01*
X132807501Y-78621191D01*
X132807500Y-78621208D01*
X132807500Y-78858791D01*
X132807501Y-78858808D01*
X132838511Y-79094356D01*
X132900009Y-79323866D01*
X132990924Y-79543356D01*
X132990931Y-79543371D01*
X133055975Y-79656030D01*
X133072448Y-79723930D01*
X133049595Y-79789957D01*
X132994674Y-79833148D01*
X132925121Y-79839789D01*
X132886589Y-79825418D01*
X132825168Y-79789957D01*
X132817104Y-79785301D01*
X132817102Y-79785300D01*
X132817092Y-79785295D01*
X132615699Y-79701876D01*
X132517973Y-79675690D01*
X132405131Y-79645455D01*
X132357101Y-79639131D01*
X132189006Y-79617000D01*
X132188999Y-79617000D01*
X131971001Y-79617000D01*
X131970993Y-79617000D01*
X131778883Y-79642293D01*
X131754869Y-79645455D01*
X131715403Y-79656030D01*
X131544300Y-79701876D01*
X131342907Y-79785295D01*
X131342897Y-79785300D01*
X131273410Y-79825418D01*
X131205509Y-79841889D01*
X131139483Y-79819037D01*
X131096293Y-79764115D01*
X131089652Y-79694561D01*
X131104024Y-79656030D01*
X131169068Y-79543370D01*
X131169075Y-79543356D01*
X131259990Y-79323866D01*
X131321488Y-79094356D01*
X131352498Y-78858808D01*
X131352500Y-78858791D01*
X131352500Y-78621208D01*
X131352498Y-78621191D01*
X131321488Y-78385643D01*
X131259990Y-78156133D01*
X131169075Y-77936643D01*
X131169068Y-77936628D01*
X131050272Y-77730868D01*
X130986194Y-77647359D01*
X130986193Y-77647359D01*
X130312453Y-78321099D01*
X130219657Y-78182220D01*
X130097780Y-78060343D01*
X129958899Y-77967546D01*
X130632639Y-77293805D01*
X130632639Y-77293804D01*
X130549129Y-77229727D01*
X130549122Y-77229721D01*
X130343371Y-77110931D01*
X130343356Y-77110924D01*
X130123866Y-77020009D01*
X129894356Y-76958511D01*
X129658808Y-76927501D01*
X129658791Y-76927500D01*
X129421209Y-76927500D01*
X129421191Y-76927501D01*
X129185643Y-76958511D01*
X128956133Y-77020009D01*
X128736643Y-77110924D01*
X128736628Y-77110931D01*
X128530875Y-77229723D01*
X128530861Y-77229732D01*
X128447359Y-77293804D01*
X128447359Y-77293805D01*
X129121100Y-77967546D01*
X128982220Y-78060343D01*
X128860343Y-78182220D01*
X128767546Y-78321100D01*
X128093805Y-77647359D01*
X128093804Y-77647359D01*
X128029732Y-77730861D01*
X128029723Y-77730875D01*
X127910931Y-77936628D01*
X127910924Y-77936643D01*
X127820009Y-78156133D01*
X127758511Y-78385643D01*
X127727501Y-78621191D01*
X127727500Y-78621208D01*
X127000500Y-78621208D01*
X127000500Y-76324500D01*
X127020185Y-76257461D01*
X127072989Y-76211706D01*
X127124500Y-76200500D01*
X175135500Y-76200500D01*
X175202539Y-76220185D01*
G37*
%TD.AperFunction*%
%TD*%
M02*
