%TF.GenerationSoftware,KiCad,Pcbnew,9.0.7*%
%TF.CreationDate,2026-03-14T11:18:55-04:00*%
%TF.ProjectId,lab6,6c616236-2e6b-4696-9361-645f70636258,rev?*%
%TF.SameCoordinates,Original*%
%TF.FileFunction,Copper,L1,Top*%
%TF.FilePolarity,Positive*%
%FSLAX46Y46*%
G04 Gerber Fmt 4.6, Leading zero omitted, Abs format (unit mm)*
G04 Created by KiCad (PCBNEW 9.0.7) date 2026-03-14 11:18:55*
%MOMM*%
%LPD*%
G01*
G04 APERTURE LIST*
G04 Aperture macros list*
%AMRoundRect*
0 Rectangle with rounded corners*
0 $1 Rounding radius*
0 $2 $3 $4 $5 $6 $7 $8 $9 X,Y pos of 4 corners*
0 Add a 4 corners polygon primitive as box body*
4,1,4,$2,$3,$4,$5,$6,$7,$8,$9,$2,$3,0*
0 Add four circle primitives for the rounded corners*
1,1,$1+$1,$2,$3*
1,1,$1+$1,$4,$5*
1,1,$1+$1,$6,$7*
1,1,$1+$1,$8,$9*
0 Add four rect primitives between the rounded corners*
20,1,$1+$1,$2,$3,$4,$5,0*
20,1,$1+$1,$4,$5,$6,$7,0*
20,1,$1+$1,$6,$7,$8,$9,0*
20,1,$1+$1,$8,$9,$2,$3,0*%
G04 Aperture macros list end*
%TA.AperFunction,Conductor*%
%ADD10C,0.200000*%
%TD*%
%TA.AperFunction,EtchedComponent*%
%ADD11C,0.000000*%
%TD*%
%TA.AperFunction,ComponentPad*%
%ADD12C,2.325000*%
%TD*%
%TA.AperFunction,ComponentPad*%
%ADD13C,2.625000*%
%TD*%
%TA.AperFunction,SMDPad,CuDef*%
%ADD14RoundRect,0.250000X0.375000X0.850000X-0.375000X0.850000X-0.375000X-0.850000X0.375000X-0.850000X0*%
%TD*%
%TA.AperFunction,SMDPad,CuDef*%
%ADD15RoundRect,0.250000X-0.250000X-0.475000X0.250000X-0.475000X0.250000X0.475000X-0.250000X0.475000X0*%
%TD*%
%TA.AperFunction,SMDPad,CuDef*%
%ADD16C,0.500000*%
%TD*%
%TA.AperFunction,SMDPad,CuDef*%
%ADD17RoundRect,0.250000X0.475000X-0.250000X0.475000X0.250000X-0.475000X0.250000X-0.475000X-0.250000X0*%
%TD*%
%TA.AperFunction,SMDPad,CuDef*%
%ADD18RoundRect,0.250000X0.550000X-1.500000X0.550000X1.500000X-0.550000X1.500000X-0.550000X-1.500000X0*%
%TD*%
%TA.AperFunction,SMDPad,CuDef*%
%ADD19R,1.800000X1.500000*%
%TD*%
%TA.AperFunction,SMDPad,CuDef*%
%ADD20RoundRect,0.218750X-0.381250X0.218750X-0.381250X-0.218750X0.381250X-0.218750X0.381250X0.218750X0*%
%TD*%
%TA.AperFunction,SMDPad,CuDef*%
%ADD21RoundRect,0.250000X-0.375000X-0.850000X0.375000X-0.850000X0.375000X0.850000X-0.375000X0.850000X0*%
%TD*%
%TA.AperFunction,SMDPad,CuDef*%
%ADD22RoundRect,0.250000X-0.325000X-0.650000X0.325000X-0.650000X0.325000X0.650000X-0.325000X0.650000X0*%
%TD*%
%TA.AperFunction,SMDPad,CuDef*%
%ADD23R,1.500000X1.800000*%
%TD*%
%TA.AperFunction,ComponentPad*%
%ADD24R,1.700000X1.700000*%
%TD*%
%TA.AperFunction,ComponentPad*%
%ADD25O,1.700000X1.700000*%
%TD*%
%TA.AperFunction,SMDPad,CuDef*%
%ADD26RoundRect,0.250000X-0.650000X0.325000X-0.650000X-0.325000X0.650000X-0.325000X0.650000X0.325000X0*%
%TD*%
%TA.AperFunction,SMDPad,CuDef*%
%ADD27RoundRect,0.250000X0.250000X0.475000X-0.250000X0.475000X-0.250000X-0.475000X0.250000X-0.475000X0*%
%TD*%
%TA.AperFunction,SMDPad,CuDef*%
%ADD28R,0.482600X1.397000*%
%TD*%
%TA.AperFunction,SMDPad,CuDef*%
%ADD29R,0.558800X1.397000*%
%TD*%
%TA.AperFunction,ViaPad*%
%ADD30C,0.500000*%
%TD*%
%TA.AperFunction,Conductor*%
%ADD31C,0.349250*%
%TD*%
%TA.AperFunction,Conductor*%
%ADD32C,2.060000*%
%TD*%
G04 APERTURE END LIST*
%TO.N,GND*%
D10*
X147410000Y-116070000D02*
X151740000Y-116070000D01*
X151740000Y-117430000D01*
X147410000Y-117430000D01*
X147410000Y-116070000D01*
%TA.AperFunction,Conductor*%
G36*
X147410000Y-116070000D02*
G01*
X151740000Y-116070000D01*
X151740000Y-117430000D01*
X147410000Y-117430000D01*
X147410000Y-116070000D01*
G37*
%TD.AperFunction*%
D11*
%TA.AperFunction,EtchedComponent*%
%TD*%
%TO.C,NT1*%
G36*
X158500000Y-81520000D02*
G01*
X157500000Y-81520000D01*
X157500000Y-81020000D01*
X158500000Y-81020000D01*
X158500000Y-81520000D01*
G37*
%TD.AperFunction*%
%TA.AperFunction,EtchedComponent*%
%TO.C,U1*%
G36*
X150619800Y-119698800D02*
G01*
X149959400Y-120333800D01*
X149959400Y-120435400D01*
X149400600Y-120435400D01*
X149400600Y-120308400D01*
X148740200Y-119698800D01*
X148740200Y-117031800D01*
X150619800Y-117031800D01*
X150619800Y-119698800D01*
G37*
%TD.AperFunction*%
%TD*%
D12*
%TO.P,J4,1*%
%TO.N,Net-(C4-Pad1)*%
X170180000Y-119380000D03*
D13*
%TO.P,J4,G1*%
%TO.N,GND*%
X167640000Y-116840000D03*
%TO.P,J4,G2*%
X172720000Y-116840000D03*
%TO.P,J4,G3*%
X167640000Y-121920000D03*
%TO.P,J4,G4*%
X172720000Y-121920000D03*
%TD*%
D12*
%TO.P,J3,1*%
%TO.N,Net-(C3-Pad1)*%
X132080000Y-119380000D03*
D13*
%TO.P,J3,G1*%
%TO.N,GND*%
X129540000Y-116840000D03*
%TO.P,J3,G2*%
X134620000Y-116840000D03*
%TO.P,J3,G3*%
X129540000Y-121920000D03*
%TO.P,J3,G4*%
X134620000Y-121920000D03*
%TD*%
D14*
%TO.P,L1,1*%
%TO.N,Net-(J1-Pad1)*%
X139525000Y-93125000D03*
%TO.P,L1,2*%
%TO.N,Net-(C1-Pad1)*%
X137375000Y-93125000D03*
%TD*%
D15*
%TO.P,C3,1*%
%TO.N,Net-(C3-Pad1)*%
X143480000Y-121100000D03*
%TO.P,C3,2*%
%TO.N,Net-(C3-Pad2)*%
X145380000Y-121100000D03*
%TD*%
D12*
%TO.P,J2,1*%
%TO.N,Net-(J2-Pad1)*%
X170180000Y-104140000D03*
D13*
%TO.P,J2,G1*%
%TO.N,GND*%
X167640000Y-101600000D03*
%TO.P,J2,G2*%
X172720000Y-101600000D03*
%TO.P,J2,G3*%
X167640000Y-106680000D03*
%TO.P,J2,G4*%
X172720000Y-106680000D03*
%TD*%
D16*
%TO.P,NT1,1,1*%
%TO.N,GND*%
X157500000Y-81270000D03*
%TO.P,NT1,2,2*%
%TO.N,Net-(J1-Pad1)*%
X158500000Y-81270000D03*
%TD*%
D17*
%TO.P,C5,1*%
%TO.N,Net-(J5-Pin_1)*%
X140500000Y-111500000D03*
%TO.P,C5,2*%
%TO.N,GND*%
X140500000Y-109600000D03*
%TD*%
D18*
%TO.P,C6,1*%
%TO.N,Net-(J5-Pin_1)*%
X136050000Y-107280000D03*
%TO.P,C6,2*%
%TO.N,GND*%
X136050000Y-101880000D03*
%TD*%
D19*
%TO.P,R1,1*%
%TO.N,Net-(R1-Pad1)*%
X145490000Y-115220000D03*
%TO.P,R1,2*%
%TO.N,Net-(J5-Pin_1)*%
X145490000Y-112220000D03*
%TD*%
D20*
%TO.P,FB1,1*%
%TO.N,Net-(FB1-Pad1)*%
X154600000Y-119207500D03*
%TO.P,FB1,2*%
%TO.N,Net-(C4-Pad2)*%
X154600000Y-121332500D03*
%TD*%
D12*
%TO.P,J1,1*%
%TO.N,Net-(J1-Pad1)*%
X132080000Y-81280000D03*
D13*
%TO.P,J1,G1*%
%TO.N,GND*%
X129540000Y-78740000D03*
%TO.P,J1,G2*%
X134620000Y-78740000D03*
%TO.P,J1,G3*%
X129540000Y-83820000D03*
%TO.P,J1,G4*%
X134620000Y-83820000D03*
%TD*%
D21*
%TO.P,L2,1*%
%TO.N,Net-(J2-Pad1)*%
X149615000Y-109695000D03*
%TO.P,L2,2*%
%TO.N,Net-(C2-Pad1)*%
X151765000Y-109695000D03*
%TD*%
D22*
%TO.P,C2,1*%
%TO.N,Net-(C2-Pad1)*%
X156965000Y-109720000D03*
%TO.P,C2,2*%
%TO.N,GND*%
X159915000Y-109720000D03*
%TD*%
D23*
%TO.P,R2,1*%
%TO.N,Net-(FB1-Pad1)*%
X155430000Y-114030000D03*
%TO.P,R2,2*%
%TO.N,Net-(R1-Pad1)*%
X152430000Y-114030000D03*
%TD*%
D24*
%TO.P,J5,1,Pin_1*%
%TO.N,Net-(J5-Pin_1)*%
X134670000Y-111550000D03*
D25*
%TO.P,J5,2,Pin_2*%
%TO.N,GND*%
X132130000Y-111550000D03*
%TD*%
D26*
%TO.P,C1,1*%
%TO.N,Net-(C1-Pad1)*%
X131787000Y-93125000D03*
%TO.P,C1,2*%
%TO.N,GND*%
X131787000Y-96075000D03*
%TD*%
D27*
%TO.P,C4,1*%
%TO.N,Net-(C4-Pad1)*%
X159520000Y-121440000D03*
%TO.P,C4,2*%
%TO.N,Net-(C4-Pad2)*%
X157620000Y-121440000D03*
%TD*%
D28*
%TO.P,U1,1*%
%TO.N,Net-(C3-Pad2)*%
X148180000Y-121133900D03*
D29*
%TO.P,U1,2,GND*%
%TO.N,GND*%
X149680000Y-121133900D03*
D28*
%TO.P,U1,3*%
%TO.N,Net-(C4-Pad2)*%
X151180000Y-121133900D03*
%TD*%
D30*
%TO.N,GND*%
X148010000Y-117250000D03*
X160940000Y-108345000D03*
X130110600Y-96122200D03*
X159915000Y-111120000D03*
X159915000Y-108320000D03*
X133311000Y-96122200D03*
X130110600Y-97341400D03*
X149680000Y-121133900D03*
X148960000Y-116320000D03*
X150390000Y-116320000D03*
X160990000Y-109620000D03*
X160915000Y-111095000D03*
X140500000Y-109600000D03*
X157500000Y-81270000D03*
X149630000Y-116330000D03*
X131787000Y-97392200D03*
X136050000Y-101880000D03*
X133260200Y-97341400D03*
X151340000Y-117190000D03*
%TD*%
D31*
%TO.N,Net-(C1-Pad1)*%
X137375000Y-93125000D02*
X131787000Y-93125000D01*
%TO.N,GND*%
X131787000Y-96075000D02*
X131787000Y-97392200D01*
X160915000Y-110720000D02*
X159915000Y-109720000D01*
X159915000Y-108320000D02*
X159915000Y-109720000D01*
X159915000Y-111120000D02*
X159915000Y-109720000D01*
X160940000Y-108695000D02*
X159915000Y-109720000D01*
X160940000Y-108345000D02*
X160940000Y-108695000D01*
X131787000Y-96075000D02*
X133263800Y-96075000D01*
X130157800Y-96075000D02*
X130110600Y-96122200D01*
X134970000Y-83470000D02*
X134620000Y-83820000D01*
X160990000Y-109620000D02*
X160015000Y-109620000D01*
X131787000Y-96075000D02*
X131993800Y-96075000D01*
X160015000Y-109620000D02*
X159915000Y-109720000D01*
X131787000Y-96075000D02*
X130157800Y-96075000D01*
X160915000Y-111095000D02*
X160915000Y-110720000D01*
X131993800Y-96075000D02*
X133260200Y-97341400D01*
X131377000Y-96075000D02*
X130110600Y-97341400D01*
X133263800Y-96075000D02*
X133311000Y-96122200D01*
X131787000Y-96075000D02*
X131377000Y-96075000D01*
%TO.N,Net-(C2-Pad1)*%
X156940000Y-109695000D02*
X156965000Y-109720000D01*
X151765000Y-109695000D02*
X156940000Y-109695000D01*
%TO.N,Net-(C3-Pad1)*%
X132560000Y-118900000D02*
X132080000Y-119380000D01*
X143480000Y-121100000D02*
X141760000Y-119380000D01*
X141760000Y-119380000D02*
X132080000Y-119380000D01*
%TO.N,Net-(C3-Pad2)*%
X148146100Y-121100000D02*
X148180000Y-121133900D01*
X145380000Y-121100000D02*
X148146100Y-121100000D01*
%TO.N,Net-(C4-Pad1)*%
X170040000Y-119240000D02*
X170180000Y-119380000D01*
X170180000Y-119380000D02*
X161580000Y-119380000D01*
X161580000Y-119380000D02*
X159520000Y-121440000D01*
%TO.N,Net-(C4-Pad2)*%
X157512500Y-121332500D02*
X157620000Y-121440000D01*
X151180000Y-121133900D02*
X154401400Y-121133900D01*
X154600000Y-121332500D02*
X157512500Y-121332500D01*
X154401400Y-121133900D02*
X154600000Y-121332500D01*
%TO.N,Net-(J5-Pin_1)*%
X141220000Y-112220000D02*
X140500000Y-111500000D01*
X136050000Y-110170000D02*
X135610000Y-110610000D01*
X135610000Y-110610000D02*
X134670000Y-111550000D01*
X145490000Y-112220000D02*
X141220000Y-112220000D01*
X136500000Y-111500000D02*
X140500000Y-111500000D01*
X136050000Y-107280000D02*
X136050000Y-110170000D01*
X135610000Y-110610000D02*
X136500000Y-111500000D01*
%TO.N,Net-(FB1-Pad1)*%
X155130000Y-118677500D02*
X154600000Y-119207500D01*
X155130000Y-114980000D02*
X155130000Y-118677500D01*
%TO.N,Net-(J2-Pad1)*%
X146740000Y-104430000D02*
X146990000Y-104180000D01*
X143982364Y-104430000D02*
X146740000Y-104430000D01*
X142930000Y-104430000D02*
X143982364Y-104430000D01*
X149615000Y-109695000D02*
X149220000Y-110090000D01*
X170180000Y-104140000D02*
X162830000Y-104140000D01*
X143205000Y-109705000D02*
X143020000Y-109890000D01*
D32*
X162790000Y-104180000D02*
X146990000Y-104180000D01*
D31*
X142930000Y-109800000D02*
X142930000Y-104430000D01*
X143020000Y-109890000D02*
X142930000Y-109800000D01*
X148900825Y-109705000D02*
X143205000Y-109705000D01*
X162830000Y-104140000D02*
X162790000Y-104180000D01*
%TO.N,Net-(R1-Pad1)*%
X151240000Y-115220000D02*
X152430000Y-114030000D01*
X145730000Y-114980000D02*
X145490000Y-115220000D01*
X145490000Y-115220000D02*
X151240000Y-115220000D01*
%TO.N,Net-(J1-Pad1)*%
X156888022Y-97049746D02*
X156888022Y-93800000D01*
X154488022Y-88750254D02*
X154788022Y-88750254D01*
X144888022Y-92600000D02*
X144888022Y-89350262D01*
X155988022Y-97649746D02*
X156288022Y-97649746D01*
X150888022Y-97049738D02*
X150888022Y-93200000D01*
X152388022Y-93200000D02*
X152388022Y-97049738D01*
X158510000Y-81260000D02*
X158520000Y-81250000D01*
X147888022Y-97049738D02*
X147888022Y-93200000D01*
X137130000Y-81280000D02*
X132080000Y-81280000D01*
X168400000Y-91380000D02*
X168400000Y-77690000D01*
X155388022Y-93200000D02*
X155388022Y-93800000D01*
X158510000Y-82430000D02*
X158510000Y-81260000D01*
X158510000Y-93200000D02*
X158510000Y-82430000D01*
X162540000Y-97240000D02*
X168400000Y-91380000D01*
X157488022Y-93200000D02*
X157788022Y-93200000D01*
X149388022Y-89350262D02*
X149388022Y-93200000D01*
X141070000Y-77690000D02*
X137480000Y-81280000D01*
X146388022Y-89350262D02*
X146388022Y-92600000D01*
X149388022Y-93200000D02*
X149388022Y-97049738D01*
X152988022Y-97649738D02*
X153288022Y-97649738D01*
X156857070Y-97240000D02*
X162540000Y-97240000D01*
X168400000Y-77690000D02*
X141070000Y-77690000D01*
X146988022Y-97649738D02*
X147288022Y-97649738D01*
X155388022Y-93800000D02*
X155388022Y-97049746D01*
X152388022Y-89350262D02*
X152388022Y-93200000D01*
X137480000Y-81280000D02*
X137130000Y-81280000D01*
X155388022Y-89350254D02*
X155388022Y-93200000D01*
X146388022Y-92600000D02*
X146388022Y-93200000D01*
X145488022Y-88750262D02*
X145788022Y-88750262D01*
X153888022Y-93200000D02*
X153888022Y-89350254D01*
X146388022Y-93200000D02*
X146388022Y-97049738D01*
X148488022Y-88750262D02*
X148788022Y-88750262D01*
X149988022Y-97649738D02*
X150288022Y-97649738D01*
X147888022Y-93200000D02*
X147888022Y-89350262D01*
X153888022Y-97049738D02*
X153888022Y-93200000D01*
X140150000Y-93200000D02*
X144288022Y-93200000D01*
X157788022Y-93200000D02*
X158510000Y-93200000D01*
X151488022Y-88750262D02*
X151788022Y-88750262D01*
X150888022Y-93200000D02*
X150888022Y-89350262D01*
X148788022Y-88750262D02*
G75*
G02*
X149388038Y-89350262I-22J-600038D01*
G01*
X150888022Y-89350262D02*
G75*
G02*
X151488022Y-88750322I599978J-38D01*
G01*
X144888022Y-89350262D02*
G75*
G02*
X145488022Y-88750322I599978J-38D01*
G01*
X149388022Y-97049738D02*
G75*
G03*
X149988022Y-97649678I599978J38D01*
G01*
X146388022Y-97049738D02*
G75*
G03*
X146988022Y-97649678I599978J38D01*
G01*
X154788022Y-88750254D02*
G75*
G02*
X155388046Y-89350254I-22J-600046D01*
G01*
X152388022Y-97049738D02*
G75*
G03*
X152988022Y-97649678I599978J38D01*
G01*
X144288022Y-93200000D02*
G75*
G03*
X144888000Y-92600000I-22J600000D01*
G01*
X156288022Y-97649746D02*
G75*
G03*
X156888046Y-97049746I-22J600046D01*
G01*
X147888022Y-89350262D02*
G75*
G02*
X148488022Y-88750322I599978J-38D01*
G01*
X151788022Y-88750262D02*
G75*
G02*
X152388038Y-89350262I-22J-600038D01*
G01*
X153888022Y-89350254D02*
G75*
G02*
X154488022Y-88750322I599978J-46D01*
G01*
X155388022Y-97049746D02*
G75*
G03*
X155988022Y-97649678I599978J46D01*
G01*
X156888022Y-93800000D02*
G75*
G02*
X157488022Y-93200022I599978J0D01*
G01*
X153288022Y-97649738D02*
G75*
G03*
X153888038Y-97049738I-22J600038D01*
G01*
X147288022Y-97649738D02*
G75*
G03*
X147888038Y-97049738I-22J600038D01*
G01*
X150288022Y-97649738D02*
G75*
G03*
X150888038Y-97049738I-22J600038D01*
G01*
X145788022Y-88750262D02*
G75*
G02*
X146388038Y-89350262I-22J-600038D01*
G01*
%TD*%
M02*
